<?xml version="1.0" encoding="UTF-8"?>
<!-- Generator: visioncortex VTracer 0.6.3 -->
<svg version="1.1" xmlns="http://www.w3.org/2000/svg" width="1280" height="1280">
<path d="M0 0 C2.13 1.21 2.13 1.21 5.27 2.43 C22.05 9.53 36.16 24.89 43.42 41.43 C44.1 43.3 44.73 45.19 45.32 47.09 C45.77 49.04 45.77 49.04 46.94 50.06 C47.09 51.09 47.23 52.12 47.38 53.19 C47.94 57.64 47.94 57.64 49.94 64.06 C49.94 80.56 49.94 97.06 49.94 114.06 C102.08 114.06 154.22 114.06 207.94 114.06 C207.94 97.56 207.94 81.06 207.94 64.06 C211.27 48.51 211.27 48.51 213.88 44 C215.09 41.88 215.09 41.88 216.31 38.73 C223.41 21.96 238.64 8.13 255.03 0.65 C257.65 -0.31 260.27 -1.15 262.94 -1.94 C264.55 -2.5 266.15 -3.06 267.75 -3.62 C282.11 -8.6 302.32 -7.74 316.32 -1.95 C317.57 -1.34 318.8 -0.7 320 0 C322.13 1.21 322.13 1.21 325.27 2.43 C342.05 9.53 356.16 24.89 363.42 41.43 C364.1 43.3 364.73 45.19 365.32 47.09 C365.77 49.04 365.77 49.04 366.94 50.06 C367.09 51.09 367.23 52.12 367.38 53.19 C367.94 57.64 367.94 57.64 369.94 64.06 C369.94 80.56 369.94 97.06 369.94 114.06 C422.08 114.06 474.22 114.06 527.94 114.06 C527.94 97.56 527.94 81.06 527.94 64.06 C531.27 48.51 531.27 48.51 533.88 44 C535.09 41.88 535.09 41.88 536.31 38.73 C543.41 21.96 558.64 8.13 575.03 0.65 C577.65 -0.31 580.27 -1.15 582.94 -1.94 C584.55 -2.5 586.15 -3.06 587.75 -3.62 C602.11 -8.6 622.32 -7.74 636.32 -1.95 C637.57 -1.34 638.8 -0.7 640 0 C642.13 1.21 642.13 1.21 645.27 2.43 C662.05 9.53 676.16 24.89 683.42 41.43 C684.1 43.3 684.73 45.19 685.32 47.09 C685.77 49.04 685.77 49.04 686.94 50.06 C687.09 51.09 687.23 52.12 687.38 53.19 C687.81 56.97 687.81 56.97 688.96 60.08 C690.46 65.2 690.19 70.39 690.14 75.68 C690.13 77.33 690.13 77.33 690.13 79.02 C690.12 82.51 690.09 86.01 690.07 89.5 C690.06 91.88 690.05 94.25 690.04 96.63 C690.02 102.44 689.98 108.25 689.94 114.06 C690.5 114.06 691.07 114.06 691.65 114.05 C705.42 113.99 719.2 113.94 732.97 113.91 C739.63 113.89 746.3 113.87 752.96 113.84 C759.4 113.8 765.84 113.79 772.27 113.78 C774.72 113.77 777.17 113.76 779.61 113.75 C795.66 113.64 810.77 113.75 825.69 120.38 C826.39 120.67 827.1 120.97 827.82 121.28 C833.72 123.85 839.4 126.79 844.94 130.06 C844.94 130.72 844.94 131.38 844.94 132.06 C845.84 132.25 845.84 132.25 846.75 132.44 C848.94 133.06 848.94 133.06 851.94 135.06 C851.94 135.72 851.94 136.38 851.94 137.06 C852.52 137.33 853.1 137.6 853.69 137.88 C856 139.09 857.96 140.37 859.94 142.06 C859.94 142.72 859.94 143.38 859.94 144.06 C860.6 144.06 861.26 144.06 861.94 144.06 C866.94 149.54 866.94 149.54 866.94 152.06 C867.6 152.06 868.26 152.06 868.94 152.06 C871.24 154.62 871.94 155.54 871.94 159.06 C872.6 159.06 873.26 159.06 873.94 159.06 C886.19 181.03 890.41 200.35 890.33 225.32 C890.33 227.54 890.34 229.77 890.35 231.99 C890.36 238.06 890.36 244.13 890.35 250.2 C890.34 256.09 890.35 261.97 890.36 267.86 C890.38 280.63 890.39 293.4 890.38 306.18 C890.38 317.35 890.38 328.52 890.38 339.69 C890.38 341.19 890.38 342.69 890.38 344.19 C890.39 346.46 890.39 348.72 890.39 350.98 C890.4 371.99 890.4 393 890.4 414.01 C890.39 414.8 890.39 415.59 890.39 416.41 C890.39 422.83 890.39 429.25 890.39 435.68 C890.38 460.75 890.38 485.83 890.41 510.91 C890.43 539.1 890.45 567.3 890.44 595.49 C890.44 598.49 890.44 601.5 890.44 604.5 C890.44 605.24 890.44 605.98 890.44 606.75 C890.43 617.92 890.44 629.09 890.46 640.26 C890.47 652.95 890.47 665.65 890.45 678.34 C890.45 684.82 890.44 691.3 890.46 697.77 C890.47 703.7 890.47 709.63 890.45 715.56 C890.44 717.7 890.45 719.85 890.46 721.99 C890.47 724.91 890.46 727.82 890.44 730.74 C890.45 731.57 890.46 732.41 890.47 733.27 C890.38 740.38 888.12 745.41 883.63 750.88 C878.27 755.24 873.23 756.65 866.43 756.41 C859.71 755.48 855.41 752.05 851.17 746.94 C787.23 649 847.94 513.03 847.94 396.06 C479 396.06 110.06 396.06 -270.06 396.06 C-269.96 499.29 -269.85 602.52 -269.75 708.88 C-269.72 741.51 -269.7 774.14 -269.67 807.76 C-269.63 836.93 -269.63 836.93 -269.59 866.1 C-269.57 879.99 -269.57 893.87 -269.56 907.76 C-269.56 921.91 -269.54 936.07 -269.51 950.22 C-269.5 958.64 -269.49 967.06 -269.49 975.48 C-269.5 981.69 -269.48 987.9 -269.47 994.11 C-269.46 996.62 -269.46 999.14 -269.47 1001.65 C-269.47 1005.07 -269.46 1008.49 -269.44 1011.92 C-269.45 1012.89 -269.46 1013.87 -269.46 1014.88 C-269.39 1023.59 -267.27 1031.57 -264 1039.62 C-263.68 1040.43 -263.35 1041.24 -263.02 1042.07 C-262.11 1044.23 -262.11 1044.23 -260.06 1046.06 C-260.06 1047.05 -260.06 1048.04 -260.06 1049.06 C-259.4 1049.06 -258.74 1049.06 -258.06 1049.06 C-255.06 1052.52 -255.06 1052.52 -255.06 1055.06 C-254.4 1055.06 -253.74 1055.06 -253.06 1055.06 C-253.06 1055.72 -253.06 1056.38 -253.06 1057.06 C-252.4 1057.06 -251.74 1057.06 -251.06 1057.06 C-251.06 1057.72 -251.06 1058.38 -251.06 1059.06 C-250.13 1059.53 -250.13 1059.53 -249.18 1060 C-247.81 1060.69 -246.43 1061.38 -245.06 1062.06 C-245.06 1062.72 -245.06 1063.38 -245.06 1064.06 C-244.48 1064.19 -243.9 1064.31 -243.3 1064.44 C-241.04 1065.07 -239.2 1065.91 -237.12 1067 C-227.62 1071.83 -218.53 1073.37 -207.92 1073.31 C-206.94 1073.32 -205.97 1073.32 -204.96 1073.32 C-201.71 1073.33 -198.45 1073.32 -195.19 1073.31 C-192.83 1073.32 -190.47 1073.32 -188.11 1073.32 C-182.3 1073.33 -176.5 1073.33 -170.69 1073.32 C-163.74 1073.32 -156.78 1073.32 -149.83 1073.33 C-136.99 1073.34 -124.15 1073.34 -111.31 1073.34 C-92.97 1073.33 -74.64 1073.35 -56.3 1073.36 C-48.93 1073.37 -41.57 1073.38 -34.21 1073.38 C-33.39 1073.38 -32.58 1073.38 -31.73 1073.38 C-12.27 1073.4 7.18 1073.41 26.64 1073.42 C27.92 1073.42 27.92 1073.42 29.22 1073.42 C49.09 1073.43 68.95 1073.44 88.82 1073.44 C89.67 1073.44 90.53 1073.44 91.41 1073.44 C95.72 1073.44 100.03 1073.44 104.34 1073.44 C105.19 1073.44 106.04 1073.44 106.92 1073.44 C108.64 1073.44 110.36 1073.44 112.08 1073.44 C140.49 1073.45 168.89 1073.46 197.29 1073.5 C201.3 1073.5 205.31 1073.5 209.32 1073.51 C210.51 1073.51 210.51 1073.51 211.72 1073.51 C224.42 1073.52 237.12 1073.52 249.83 1073.51 C262.59 1073.51 275.36 1073.51 288.12 1073.53 C295.03 1073.54 301.95 1073.55 308.86 1073.54 C315.19 1073.52 321.52 1073.53 327.85 1073.55 C330.14 1073.55 332.43 1073.55 334.72 1073.54 C337.83 1073.53 340.94 1073.54 344.05 1073.56 C344.95 1073.55 345.84 1073.54 346.76 1073.53 C354.07 1073.62 359.13 1075.75 364.75 1080.38 C369.12 1085.74 370.52 1090.77 370.29 1097.57 C369.38 1104.01 365.94 1109 360.94 1113.06 C355.2 1116.1 350.53 1116.49 344.1 1116.44 C342.63 1116.45 342.63 1116.45 341.13 1116.45 C337.84 1116.46 334.55 1116.45 331.26 1116.44 C328.88 1116.45 326.5 1116.45 324.12 1116.46 C318.94 1116.47 313.76 1116.47 308.59 1116.46 C300.89 1116.45 293.19 1116.45 285.49 1116.46 C271.73 1116.48 257.98 1116.48 244.22 1116.47 C232.18 1116.46 220.14 1116.46 208.1 1116.46 C206.9 1116.46 206.9 1116.46 205.68 1116.46 C202.44 1116.47 199.2 1116.47 195.95 1116.47 C165.53 1116.48 135.11 1116.47 104.68 1116.45 C77.67 1116.44 50.65 1116.44 23.64 1116.45 C-6.72 1116.47 -37.08 1116.48 -67.43 1116.47 C-70.67 1116.47 -73.91 1116.46 -77.15 1116.46 C-77.94 1116.46 -78.74 1116.46 -79.56 1116.46 C-91.59 1116.46 -103.62 1116.46 -115.64 1116.47 C-129.33 1116.48 -143.01 1116.48 -156.7 1116.46 C-164.35 1116.45 -172.01 1116.45 -179.66 1116.46 C-185.38 1116.47 -191.11 1116.46 -196.83 1116.45 C-199.14 1116.45 -201.45 1116.45 -203.76 1116.45 C-227.24 1116.52 -244.24 1111.69 -265.06 1101.06 C-265.72 1100.73 -266.38 1100.4 -267.06 1100.06 C-267.06 1099.4 -267.06 1098.74 -267.06 1098.06 C-267.77 1097.82 -268.49 1097.57 -269.23 1097.31 C-272.37 1095.92 -274.7 1094.22 -277.37 1092.06 C-278.25 1091.36 -279.14 1090.66 -280.05 1089.94 C-280.71 1089.32 -281.37 1088.7 -282.06 1088.06 C-282.06 1087.4 -282.06 1086.74 -282.06 1086.06 C-282.72 1086.06 -283.38 1086.06 -284.06 1086.06 C-289.06 1080.59 -289.06 1080.59 -289.06 1078.06 C-289.72 1078.06 -290.38 1078.06 -291.06 1078.06 C-293.36 1075.5 -294.06 1074.58 -294.06 1071.06 C-294.72 1071.06 -295.38 1071.06 -296.06 1071.06 C-306.49 1052.35 -312.55 1034.96 -312.44 1013.36 C-312.44 1011.94 -312.44 1010.52 -312.45 1009.09 C-312.46 1005.22 -312.45 1001.34 -312.44 997.46 C-312.44 993.23 -312.45 989 -312.45 984.77 C-312.46 977.37 -312.46 969.97 -312.46 962.56 C-312.45 951.56 -312.45 940.55 -312.46 929.54 C-312.48 909.87 -312.47 890.21 -312.47 870.55 C-312.46 853.34 -312.46 836.13 -312.46 818.92 C-312.46 817.78 -312.46 816.64 -312.46 815.46 C-312.46 810.83 -312.46 806.19 -312.46 801.55 C-312.47 758.08 -312.46 714.6 -312.45 671.13 C-312.43 632.51 -312.44 593.89 -312.45 555.28 C-312.47 511.88 -312.47 468.48 -312.46 425.08 C-312.46 420.46 -312.46 415.83 -312.46 411.2 C-312.46 410.06 -312.46 408.93 -312.46 407.75 C-312.46 390.55 -312.46 373.36 -312.47 356.16 C-312.48 336.61 -312.47 317.05 -312.46 297.5 C-312.45 286.55 -312.45 275.61 -312.46 264.67 C-312.47 257.36 -312.46 250.05 -312.45 242.74 C-312.44 238.57 -312.44 234.41 -312.45 230.25 C-312.46 226.45 -312.46 222.65 -312.44 218.86 C-312.44 216.87 -312.45 214.87 -312.46 212.88 C-312.38 200.96 -310.62 189.28 -305.75 178.31 C-305.45 177.61 -305.15 176.91 -304.84 176.18 C-302.27 170.28 -299.33 164.61 -296.06 159.06 C-295.4 159.06 -294.74 159.06 -294.06 159.06 C-293.93 158.46 -293.81 157.87 -293.68 157.25 C-293.06 155.06 -293.06 155.06 -291.06 152.06 C-290.4 152.06 -289.74 152.06 -289.06 152.06 C-288.79 151.49 -288.52 150.91 -288.25 150.31 C-287.03 148.01 -285.76 146.04 -284.06 144.06 C-283.4 144.06 -282.74 144.06 -282.06 144.06 C-282.06 143.4 -282.06 142.74 -282.06 142.06 C-276.58 137.06 -276.58 137.06 -274.06 137.06 C-274.06 136.4 -274.06 135.74 -274.06 135.06 C-269.67 132.06 -269.67 132.06 -267.06 132.06 C-267.06 131.4 -267.06 130.74 -267.06 130.06 C-243.88 117.14 -224.4 113.59 -198.09 113.77 C-195.6 113.78 -193.11 113.78 -190.62 113.78 C-184.12 113.79 -177.61 113.82 -171.11 113.86 C-164.45 113.89 -157.8 113.9 -151.14 113.92 C-138.11 113.95 -125.09 114 -112.06 114.06 C-112.07 113.17 -112.07 113.17 -112.08 112.26 C-112.15 106 -112.19 99.73 -112.22 93.47 C-112.24 91.14 -112.26 88.81 -112.28 86.48 C-112.63 55.25 -112.63 55.25 -106.12 44 C-104.91 41.88 -104.91 41.88 -103.69 38.73 C-96.59 21.96 -81.36 8.13 -64.97 0.65 C-62.35 -0.31 -59.73 -1.15 -57.06 -1.94 C-55.45 -2.5 -53.85 -3.06 -52.25 -3.62 C-37.03 -8.89 -14.07 -8.14 0 0 Z M-58.06 46.06 C-58.06 46.72 -58.06 47.38 -58.06 48.06 C-58.72 48.06 -59.38 48.06 -60.06 48.06 C-64.62 53.44 -67.18 59.34 -69.06 66.06 C-69.39 67.05 -69.72 68.04 -70.06 69.06 C-70.16 70.83 -70.19 72.6 -70.2 74.37 C-70.2 75.48 -70.21 76.58 -70.22 77.71 C-70.22 78.92 -70.22 80.13 -70.22 81.38 C-70.22 82.65 -70.23 83.92 -70.23 85.24 C-70.25 88.73 -70.25 92.23 -70.26 95.72 C-70.26 97.91 -70.27 100.1 -70.27 102.28 C-70.28 109.13 -70.29 115.98 -70.3 122.83 C-70.3 130.72 -70.32 138.61 -70.35 146.5 C-70.37 152.61 -70.38 158.72 -70.38 164.83 C-70.38 168.47 -70.39 172.11 -70.41 175.76 C-70.43 179.83 -70.42 183.9 -70.42 187.97 C-70.42 189.17 -70.43 190.37 -70.44 191.6 C-70.39 202.35 -67.56 213.88 -60.06 222.06 C-59.4 222.06 -58.74 222.06 -58.06 222.06 C-58.06 222.72 -58.06 223.38 -58.06 224.06 C-47.88 232 -37.96 235.17 -25.06 234.06 C-17.84 232.51 -9.55 229.1 -4.06 224.06 C-4.06 223.4 -4.06 222.74 -4.06 222.06 C-3.4 222.06 -2.74 222.06 -2.06 222.06 C6.37 211.26 8.24 201.61 8.22 188.18 C8.22 186.27 8.22 186.27 8.23 184.32 C8.24 180.84 8.25 177.37 8.24 173.89 C8.24 170.98 8.25 168.07 8.25 165.16 C8.26 158.29 8.26 151.43 8.26 144.56 C8.25 137.49 8.26 130.42 8.28 123.35 C8.3 117.27 8.31 111.18 8.31 105.1 C8.3 101.47 8.31 97.84 8.32 94.22 C8.33 90.17 8.33 86.12 8.31 82.07 C8.32 80.89 8.33 79.7 8.34 78.47 C8.27 67.75 5.43 56.23 -2.06 48.06 C-2.72 48.06 -3.38 48.06 -4.06 48.06 C-4.06 47.4 -4.06 46.74 -4.06 46.06 C-9.44 41.5 -15.34 38.94 -22.06 37.06 C-23.05 36.73 -24.04 36.4 -25.06 36.06 C-36.7 35.15 -49.18 37.92 -58.06 46.06 Z M261.94 46.06 C261.94 46.72 261.94 47.38 261.94 48.06 C261.28 48.06 260.62 48.06 259.94 48.06 C255.38 53.44 252.82 59.34 250.94 66.06 C250.61 67.05 250.28 68.04 249.94 69.06 C249.84 70.83 249.81 72.6 249.8 74.37 C249.8 75.48 249.79 76.58 249.78 77.71 C249.78 78.92 249.78 80.13 249.78 81.38 C249.78 82.65 249.77 83.92 249.77 85.24 C249.75 88.73 249.75 92.23 249.74 95.72 C249.74 97.91 249.73 100.1 249.73 102.28 C249.72 109.13 249.71 115.98 249.7 122.83 C249.7 130.72 249.68 138.61 249.65 146.5 C249.63 152.61 249.62 158.72 249.62 164.83 C249.62 168.47 249.61 172.11 249.59 175.76 C249.57 179.83 249.58 183.9 249.58 187.97 C249.58 189.17 249.57 190.37 249.56 191.6 C249.61 202.35 252.44 213.88 259.94 222.06 C260.6 222.06 261.26 222.06 261.94 222.06 C261.94 222.72 261.94 223.38 261.94 224.06 C272.12 232 282.04 235.17 294.94 234.06 C302.16 232.51 310.45 229.1 315.94 224.06 C315.94 223.4 315.94 222.74 315.94 222.06 C316.6 222.06 317.26 222.06 317.94 222.06 C326.37 211.26 328.24 201.61 328.22 188.18 C328.22 186.27 328.22 186.27 328.23 184.32 C328.24 180.84 328.25 177.37 328.24 173.89 C328.24 170.98 328.25 168.07 328.25 165.16 C328.26 158.29 328.26 151.43 328.26 144.56 C328.25 137.49 328.26 130.42 328.28 123.35 C328.3 117.27 328.31 111.18 328.31 105.1 C328.3 101.47 328.31 97.84 328.32 94.22 C328.33 90.17 328.33 86.12 328.31 82.07 C328.32 80.89 328.33 79.7 328.34 78.47 C328.27 67.75 325.43 56.23 317.94 48.06 C317.28 48.06 316.62 48.06 315.94 48.06 C315.94 47.4 315.94 46.74 315.94 46.06 C310.56 41.5 304.66 38.94 297.94 37.06 C296.95 36.73 295.96 36.4 294.94 36.06 C283.3 35.15 270.82 37.92 261.94 46.06 Z M581.94 46.06 C581.94 46.72 581.94 47.38 581.94 48.06 C581.28 48.06 580.62 48.06 579.94 48.06 C575.38 53.44 572.82 59.34 570.94 66.06 C570.61 67.05 570.28 68.04 569.94 69.06 C569.84 70.83 569.81 72.6 569.8 74.37 C569.8 75.48 569.79 76.58 569.78 77.71 C569.78 78.92 569.78 80.13 569.78 81.38 C569.78 82.65 569.77 83.92 569.77 85.24 C569.75 88.73 569.75 92.23 569.74 95.72 C569.74 97.91 569.73 100.1 569.73 102.28 C569.72 109.13 569.71 115.98 569.7 122.83 C569.7 130.72 569.68 138.61 569.65 146.5 C569.63 152.61 569.62 158.72 569.62 164.83 C569.62 168.47 569.61 172.11 569.59 175.76 C569.57 179.83 569.58 183.9 569.58 187.97 C569.58 189.17 569.57 190.37 569.56 191.6 C569.61 202.35 572.44 213.88 579.94 222.06 C580.6 222.06 581.26 222.06 581.94 222.06 C581.94 222.72 581.94 223.38 581.94 224.06 C592.12 232 602.04 235.17 614.94 234.06 C622.16 232.51 630.45 229.1 635.94 224.06 C635.94 223.4 635.94 222.74 635.94 222.06 C636.6 222.06 637.26 222.06 637.94 222.06 C646.37 211.26 648.24 201.61 648.22 188.18 C648.22 186.27 648.22 186.27 648.23 184.32 C648.24 180.84 648.25 177.37 648.24 173.89 C648.24 170.98 648.25 168.07 648.25 165.16 C648.26 158.29 648.26 151.43 648.26 144.56 C648.25 137.49 648.26 130.42 648.28 123.35 C648.3 117.27 648.31 111.18 648.31 105.1 C648.3 101.47 648.31 97.84 648.32 94.22 C648.33 90.17 648.33 86.12 648.31 82.07 C648.32 80.89 648.33 79.7 648.34 78.47 C648.27 67.75 645.43 56.23 637.94 48.06 C637.28 48.06 636.62 48.06 635.94 48.06 C635.94 47.4 635.94 46.74 635.94 46.06 C630.56 41.5 624.66 38.94 617.94 37.06 C616.95 36.73 615.96 36.4 614.94 36.06 C603.3 35.15 590.82 37.92 581.94 46.06 Z M-230.06 159.06 C-231.01 159.4 -231.95 159.75 -232.93 160.1 C-237.18 161.69 -241.38 163.36 -245.06 166.06 C-245.06 166.72 -245.06 167.38 -245.06 168.06 C-247.06 169.06 -249.06 170.06 -251.06 171.06 C-251.06 171.72 -251.06 172.38 -251.06 173.06 C-251.72 173.06 -252.38 173.06 -253.06 173.06 C-253.06 173.72 -253.06 174.38 -253.06 175.06 C-253.72 175.06 -254.38 175.06 -255.06 175.06 C-257.46 177.7 -257.46 177.7 -258.06 181.06 C-258.72 181.06 -259.38 181.06 -260.06 181.06 C-261.02 182.96 -261.98 184.85 -262.93 186.75 C-263.47 187.81 -264 188.86 -264.55 189.95 C-288.41 239.21 -270.06 299.33 -270.06 354.06 C98.88 354.06 467.82 354.06 847.94 354.06 C860.02 261.97 860.02 261.97 837.94 181.06 C837.28 181.06 836.62 181.06 835.94 181.06 C834.94 179.06 833.94 177.06 832.94 175.06 C832.28 175.06 831.62 175.06 830.94 175.06 C830.94 174.4 830.94 173.74 830.94 173.06 C830.28 173.06 829.62 173.06 828.94 173.06 C828.94 172.4 828.94 171.74 828.94 171.06 C826.3 168.66 826.3 168.66 822.94 168.06 C822.94 167.4 822.94 166.74 822.94 166.06 C821.05 165.1 819.15 164.14 817.25 163.19 C816.2 162.65 815.14 162.12 814.05 161.57 C804.59 156.99 795.53 155.76 785.08 155.84 C783.52 155.84 783.52 155.84 781.94 155.83 C778.55 155.84 775.16 155.85 771.78 155.87 C769.42 155.87 767.05 155.87 764.69 155.88 C758.5 155.88 752.31 155.9 746.12 155.93 C739.79 155.95 733.46 155.95 727.13 155.96 C714.74 155.99 702.34 156.02 689.94 156.06 C689.94 156.66 689.93 157.25 689.92 157.87 C689.86 164.13 689.77 170.39 689.68 176.66 C689.65 178.99 689.62 181.31 689.59 183.64 C689.28 215.28 689.28 215.28 683 226.12 C681.79 228.25 681.79 228.25 680.57 231.39 C673.62 247.84 658.77 261.42 642.57 268.55 C640.7 269.22 638.82 269.86 636.92 270.44 C634.96 270.89 634.96 270.89 633.94 272.06 C632.39 272.28 632.39 272.28 630.82 272.5 C627.03 272.94 627.03 272.94 623.86 274.08 C619.08 275.47 614.33 275.4 609.38 275.38 C608.41 275.37 607.44 275.37 606.44 275.36 C596.48 275.21 586.67 274.21 577.88 269.12 C575.76 267.92 575.76 267.92 572.62 266.7 C556.18 259.74 542.87 245.02 535.53 228.97 C534.56 226.35 533.73 223.74 532.94 221.06 C532.38 219.46 531.82 217.85 531.25 216.25 C524.93 197.99 528.23 170.47 527.94 156.06 C475.8 156.06 423.66 156.06 369.94 156.06 C369.61 172.56 369.28 189.06 368.94 206.06 C365.61 221.62 365.61 221.62 363 226.12 C361.79 228.25 361.79 228.25 360.57 231.39 C353.62 247.84 338.77 261.42 322.57 268.55 C320.7 269.22 318.82 269.86 316.92 270.44 C314.96 270.89 314.96 270.89 313.94 272.06 C312.39 272.28 312.39 272.28 310.82 272.5 C307.03 272.94 307.03 272.94 303.86 274.08 C299.08 275.47 294.33 275.4 289.38 275.38 C288.41 275.37 287.44 275.37 286.44 275.36 C276.48 275.21 266.67 274.21 257.88 269.12 C255.76 267.92 255.76 267.92 252.62 266.7 C236.18 259.74 222.87 245.02 215.53 228.97 C214.56 226.35 213.73 223.74 212.94 221.06 C212.38 219.46 211.82 217.85 211.25 216.25 C204.93 197.99 208.23 170.47 207.94 156.06 C155.8 156.06 103.66 156.06 49.94 156.06 C49.61 172.56 49.28 189.06 48.94 206.06 C45.61 221.62 45.61 221.62 43 226.12 C41.79 228.25 41.79 228.25 40.57 231.39 C33.62 247.84 18.77 261.42 2.57 268.55 C0.7 269.22 -1.18 269.86 -3.08 270.44 C-5.04 270.89 -5.04 270.89 -6.06 272.06 C-7.61 272.28 -7.61 272.28 -9.18 272.5 C-12.97 272.94 -12.97 272.94 -16.14 274.08 C-20.92 275.47 -25.67 275.4 -30.62 275.38 C-31.59 275.37 -32.56 275.37 -33.56 275.36 C-43.52 275.21 -53.33 274.21 -62.12 269.12 C-64.24 267.92 -64.24 267.92 -67.38 266.7 C-83.82 259.74 -97.13 245.02 -104.47 228.97 C-105.44 226.35 -106.27 223.74 -107.06 221.06 C-107.62 219.46 -108.18 217.85 -108.75 216.25 C-111.21 209.12 -111.26 202 -111.38 194.54 C-111.4 193.44 -111.42 192.34 -111.44 191.2 C-111.5 187.7 -111.56 184.19 -111.62 180.69 C-111.66 178.31 -111.71 175.92 -111.75 173.54 C-111.86 167.72 -111.96 161.89 -112.06 156.06 C-125.67 155.99 -139.29 155.94 -152.9 155.91 C-159.22 155.89 -165.54 155.87 -171.87 155.84 C-177.97 155.8 -184.08 155.79 -190.19 155.78 C-192.51 155.77 -194.84 155.76 -197.16 155.75 C-213.88 155.41 -213.88 155.41 -230.06 159.06 Z " fill="#000000" transform="translate(351.05859375,44.9375)"/>
<path d="M0 0 C1.3 -0 1.3 -0 2.63 -0.01 C4.46 -0.02 6.29 -0.02 8.11 -0.02 C10.87 -0.02 13.62 -0.04 16.38 -0.06 C25.09 -0.08 33.45 0.08 42.03 1.7 C44.87 2.2 47.64 2.4 50.52 2.54 C56.21 2.95 61.52 4.22 67.01 5.71 C71.23 6.85 75.38 7.57 79.71 8.17 C81.83 8.75 81.83 8.75 83.71 9.42 C87.15 10.63 90.61 11.79 94.08 12.91 C106.52 16.97 118.13 22.24 129.76 28.18 C131.09 28.85 132.42 29.52 133.75 30.17 C137.98 32.25 142.02 34.48 146.02 36.98 C147.13 37.67 148.24 38.36 149.38 39.07 C150.48 39.77 151.58 40.46 152.71 41.17 C153.74 41.82 154.78 42.47 155.85 43.14 C165.12 48.99 165.12 48.99 167.71 51.17 C167.71 51.83 167.71 52.49 167.71 53.17 C168.42 53.42 169.14 53.66 169.88 53.92 C173.02 55.31 175.35 57.01 178.02 59.17 C178.9 59.87 179.79 60.57 180.7 61.29 C181.69 62.22 181.69 62.22 182.71 63.17 C182.71 63.83 182.71 64.49 182.71 65.17 C183.54 65.54 183.54 65.54 184.39 65.92 C187.13 67.4 189.38 69.1 191.71 71.17 C191.71 71.83 191.71 72.49 191.71 73.17 C192.57 73.54 192.57 73.54 193.46 73.92 C196.04 75.35 197.77 76.95 199.71 79.17 C199.71 79.83 199.71 80.49 199.71 81.17 C200.37 81.17 201.03 81.17 201.71 81.17 C203.21 82.63 203.21 82.63 204.83 84.54 C205.64 85.48 205.64 85.48 206.46 86.44 C207.71 88.17 207.71 88.17 207.71 90.17 C208.37 90.17 209.03 90.17 209.71 90.17 C211.5 92.26 213.18 94.35 214.83 96.54 C215.3 97.15 215.77 97.75 216.25 98.37 C219.71 102.91 219.71 102.91 219.71 105.17 C220.37 105.17 221.03 105.17 221.71 105.17 C223.22 107.1 224.6 109.01 225.96 111.04 C226.36 111.64 226.76 112.23 227.18 112.84 C230.03 117.07 232.74 121.38 235.32 125.79 C236.24 127.38 237.19 128.95 238.16 130.52 C244.08 140.1 249.16 150 252.82 160.67 C253.65 163 254.6 165.19 255.64 167.42 C258.56 173.79 260.55 180.51 262.71 187.17 C263.07 188.22 263.42 189.28 263.79 190.37 C266.05 197.3 267.13 204.48 268.24 211.66 C268.59 214.15 268.59 214.15 269.71 216.17 C269.99 218.89 270.15 221.61 270.33 224.34 C270.64 227.98 270.64 227.98 271.18 230.76 C272.88 240.2 273.01 249.45 272.97 259.01 C272.96 261.73 272.97 264.45 272.98 267.17 C272.99 276.4 272.52 285.09 270.71 294.17 C270.41 297.14 270.22 300.1 270.05 303.09 C267.11 329.49 256.63 355.81 244.67 379.26 C243.27 382.03 241.93 384.82 240.58 387.61 C238.42 391.92 236.03 395.91 233.29 399.87 C230.86 403.41 228.6 407.05 226.32 410.69 C223.43 415.13 223.43 415.13 221.71 417.17 C221.05 417.17 220.39 417.17 219.71 417.17 C219.63 417.71 219.56 418.25 219.48 418.81 C218.4 422.11 216.47 424.25 214.27 426.92 C213.47 427.9 212.66 428.89 211.84 429.9 C211.13 430.65 210.43 431.4 209.71 432.17 C209.05 432.17 208.39 432.17 207.71 432.17 C207.34 433 207.34 433 206.96 433.86 C205.48 436.59 203.77 438.84 201.71 441.17 C201.05 441.17 200.39 441.17 199.71 441.17 C199.38 442.16 199.05 443.15 198.71 444.17 C198.05 444.17 197.39 444.17 196.71 444.17 C196.48 444.73 196.25 445.29 196.02 445.87 C194.34 448.81 192.24 450.67 189.71 452.92 C188.82 453.72 187.93 454.52 187.02 455.34 C184.71 457.17 184.71 457.17 182.71 457.17 C182.71 457.83 182.71 458.49 182.71 459.17 C180.62 460.96 178.53 462.64 176.33 464.29 C175.73 464.76 175.13 465.23 174.5 465.71 C169.97 469.17 169.97 469.17 167.71 469.17 C167.71 469.83 167.71 470.49 167.71 471.17 C165.81 472.68 165.81 472.68 163.33 474.29 C162.52 474.83 161.71 475.37 160.87 475.93 C158.71 477.17 158.71 477.17 156.71 477.17 C156.71 477.83 156.71 478.49 156.71 479.17 C155.7 479.74 154.69 480.31 153.65 480.9 C151.15 482.32 148.68 483.78 146.23 485.28 C131.51 494.32 116.5 501.18 100.2 506.92 C97.78 507.78 95.38 508.69 92.99 509.63 C87.86 511.56 82.58 512.88 77.27 514.23 C76.28 514.49 75.3 514.74 74.28 515.01 C65.79 517.2 57.43 519.2 48.71 520.23 C46.76 520.46 46.76 520.46 44.77 520.7 C44.1 520.78 43.44 520.85 42.75 520.93 C41.39 521.09 40.02 521.25 38.66 521.43 C33.31 522.08 28.07 522.31 22.68 522.3 C21.86 522.3 21.03 522.3 20.18 522.3 C18.44 522.3 16.71 522.3 14.97 522.3 C12.35 522.29 9.72 522.3 7.1 522.3 C-14.85 522.31 -14.85 522.31 -21.29 520.17 C-23.04 520.04 -24.79 519.94 -26.54 519.86 C-32.92 519.38 -38.77 517.82 -44.88 516.07 C-47.54 515.37 -49.89 514.89 -52.61 514.67 C-56.77 514.1 -60.08 512.77 -63.93 511.14 C-66.99 509.88 -70.11 509.05 -73.29 508.17 C-82 505.54 -90.12 502.15 -98.29 498.17 C-98.92 497.86 -99.55 497.56 -100.2 497.25 C-109.79 492.59 -119.11 487.58 -128.29 482.17 C-129.25 481.64 -130.2 481.11 -131.19 480.56 C-132.23 479.87 -132.23 479.87 -133.29 479.17 C-133.29 478.51 -133.29 477.85 -133.29 477.17 C-134.28 476.86 -134.28 476.86 -135.29 476.54 C-139.43 474.65 -142.73 471.98 -146.29 469.17 C-147.08 468.56 -147.87 467.94 -148.68 467.31 C-154.08 463.07 -159.21 458.61 -164.26 453.95 C-166.17 452.12 -166.17 452.12 -168.29 451.17 C-168.29 450.51 -168.29 449.85 -168.29 449.17 C-169.16 448.8 -169.16 448.8 -170.04 448.42 C-172.62 446.98 -174.35 445.38 -176.29 443.17 C-176.29 442.51 -176.29 441.85 -176.29 441.17 C-176.95 441.17 -177.61 441.17 -178.29 441.17 C-179.8 439.71 -179.8 439.71 -181.42 437.79 C-181.96 437.17 -182.5 436.54 -183.05 435.89 C-184.29 434.17 -184.29 434.17 -184.29 432.17 C-184.95 432.17 -185.61 432.17 -186.29 432.17 C-188.11 430.08 -189.8 427.99 -191.48 425.79 C-192.21 424.84 -192.21 424.84 -192.96 423.87 C-204.29 409.13 -204.29 409.13 -204.29 406.17 C-204.95 406.17 -205.61 406.17 -206.29 406.17 C-207.39 404.69 -207.39 404.69 -208.58 402.61 C-209.02 401.84 -209.47 401.07 -209.92 400.28 C-210.4 399.44 -210.87 398.6 -211.36 397.73 C-211.84 396.87 -212.33 396.01 -212.84 395.12 C-214.33 392.48 -215.81 389.82 -217.29 387.17 C-217.72 386.41 -218.15 385.64 -218.59 384.86 C-223.53 376.04 -227.64 367.23 -231.02 357.7 C-232.08 354.76 -233.23 351.94 -234.54 349.11 C-236.18 345.53 -237.27 341.97 -238.29 338.17 C-238.79 336.73 -239.29 335.29 -239.79 333.86 C-241.13 329.89 -242.01 325.96 -242.77 321.84 C-243.12 320.06 -243.52 318.28 -243.98 316.52 C-248.74 298.08 -249.58 279.36 -249.61 260.42 C-249.61 259.56 -249.61 258.7 -249.62 257.82 C-249.64 248.7 -249.42 239.9 -247.76 230.9 C-247.27 228.04 -247.06 225.25 -246.92 222.36 C-246.51 216.66 -245.24 211.35 -243.75 205.86 C-242.61 201.64 -241.89 197.49 -241.29 193.17 C-240.71 191.04 -240.71 191.04 -240.04 189.17 C-238.83 185.72 -237.67 182.27 -236.55 178.8 C-232.49 166.35 -227.22 154.74 -221.28 143.11 C-220.61 141.79 -219.95 140.47 -219.3 139.14 C-217.14 134.73 -214.78 130.58 -212.17 126.42 C-209.02 121.41 -209.02 121.41 -206.29 116.17 C-205.63 116.17 -204.97 116.17 -204.29 116.17 C-204.18 115.59 -204.06 115 -203.95 114.4 C-203.24 112 -202.31 110.44 -200.86 108.42 C-200.42 107.8 -199.99 107.19 -199.55 106.56 C-198.93 105.87 -198.93 105.87 -198.29 105.17 C-197.63 105.17 -196.97 105.17 -196.29 105.17 C-196.05 104.45 -195.8 103.74 -195.54 103 C-194.15 99.85 -192.45 97.53 -190.29 94.86 C-189.24 93.53 -189.24 93.53 -188.17 92.18 C-187.55 91.52 -186.93 90.85 -186.29 90.17 C-185.63 90.17 -184.97 90.17 -184.29 90.17 C-184.08 89.64 -183.86 89.1 -183.63 88.55 C-181.81 85.3 -179.37 82.7 -176.86 79.98 C-176.36 79.43 -175.87 78.89 -175.37 78.33 C-173.05 75.8 -171.6 74.27 -168.29 73.17 C-168.29 72.51 -168.29 71.85 -168.29 71.17 C-166.83 69.66 -166.83 69.66 -164.92 68.04 C-164.29 67.5 -163.66 66.97 -163.02 66.41 C-161.29 65.17 -161.29 65.17 -159.29 65.17 C-159.29 64.51 -159.29 63.85 -159.29 63.17 C-153.82 58.17 -153.82 58.17 -151.29 58.17 C-151.29 57.51 -151.29 56.85 -151.29 56.17 C-148.73 53.87 -147.81 53.17 -144.29 53.17 C-144.29 52.51 -144.29 51.85 -144.29 51.17 C-142.37 49.66 -140.45 48.28 -138.42 46.92 C-137.83 46.52 -137.23 46.11 -136.62 45.7 C-132.39 42.84 -128.08 40.14 -123.67 37.56 C-122.08 36.63 -120.51 35.68 -118.95 34.71 C-109.36 28.79 -99.46 23.71 -88.79 20.06 C-86.46 19.23 -84.28 18.28 -82.04 17.23 C-61.76 8.06 -39.25 3.77 -17.29 1.17 C-16.08 1 -14.87 0.83 -13.63 0.65 C-9.08 0.08 -4.58 0.01 0 0 Z M-7.29 43.17 C-9.58 43.32 -11.88 43.44 -14.17 43.54 C-27.07 43.83 -27.07 43.83 -38.29 48.17 C-39.43 48.27 -40.56 48.37 -41.73 48.48 C-46.08 48.96 -49.71 50.39 -53.7 52.13 C-56.29 53.17 -56.29 53.17 -59.64 54.12 C-68.82 56.75 -77.67 60.68 -86.13 65.07 C-89.12 66.59 -92.19 67.89 -95.29 69.17 C-95.29 69.83 -95.29 70.49 -95.29 71.17 C-96.94 71.5 -98.59 71.83 -100.29 72.17 C-100.29 72.83 -100.29 73.49 -100.29 74.17 C-100.88 74.29 -101.47 74.41 -102.07 74.53 C-104.37 75.19 -105.89 76.04 -107.86 77.38 C-108.83 78.04 -108.83 78.04 -109.83 78.71 C-110.5 79.17 -111.17 79.63 -111.86 80.11 C-112.53 80.56 -113.2 81.02 -113.89 81.49 C-115.14 82.33 -116.39 83.19 -117.64 84.04 C-119.18 85.09 -120.74 86.13 -122.29 87.17 C-122.29 87.83 -122.29 88.49 -122.29 89.17 C-124.29 90.17 -126.29 91.17 -128.29 92.17 C-128.29 92.83 -128.29 93.49 -128.29 94.17 C-129.11 94.51 -129.11 94.51 -129.95 94.86 C-137.79 99.22 -144.47 107.17 -150.54 113.73 C-151.02 114.24 -151.5 114.75 -151.99 115.28 C-154.55 117.82 -154.55 117.82 -155.29 121.17 C-155.95 121.17 -156.61 121.17 -157.29 121.17 C-159.69 123.8 -159.69 123.8 -160.29 127.17 C-160.95 127.17 -161.61 127.17 -162.29 127.17 C-164.02 129.55 -165.64 131.94 -167.23 134.42 C-168.11 135.78 -169 137.14 -169.88 138.5 C-170.3 139.14 -170.71 139.78 -171.14 140.44 C-172.29 142.17 -172.29 142.17 -174.11 144.46 C-175.58 146.23 -175.58 146.23 -175.29 149.17 C-175.95 149.17 -176.61 149.17 -177.29 149.17 C-177.62 150.82 -177.95 152.47 -178.29 154.17 C-178.95 154.17 -179.61 154.17 -180.29 154.17 C-183.25 159.86 -185.94 165.55 -188.26 171.53 C-189.41 174.47 -190.63 177.38 -191.86 180.29 C-193.77 184.88 -195.62 189.48 -197.29 194.17 C-197.56 194.9 -197.83 195.62 -198.11 196.38 C-199.87 201.34 -200.73 205.93 -201.29 211.17 C-201.62 211.5 -201.95 211.83 -202.29 212.17 C-204.54 221.07 -205.67 229.77 -206.08 238.93 C-206.29 242.17 -206.29 242.17 -206.8 244.52 C-213.08 278.01 -203.73 325.1 -186.29 354.17 C-185.59 355.79 -184.89 357.42 -184.22 359.06 C-182.11 363.86 -179.66 368.5 -177.29 373.17 C-176.63 373.17 -175.97 373.17 -175.29 373.17 C-175.17 373.76 -175.05 374.35 -174.92 374.95 C-173.92 378.48 -171.83 381.37 -169.86 384.42 C-169.45 385.07 -169.04 385.72 -168.62 386.39 C-167.57 388.02 -166.44 389.6 -165.29 391.17 C-164.63 391.17 -163.97 391.17 -163.29 391.17 C-162.96 392.49 -162.63 393.81 -162.29 395.17 C-161.63 395.17 -160.97 395.17 -160.29 395.17 C-159.29 397.17 -158.29 399.17 -157.29 401.17 C-156.63 401.17 -155.97 401.17 -155.29 401.17 C-155.07 401.71 -154.84 402.25 -154.61 402.81 C-152.88 405.91 -150.58 408.35 -148.17 410.92 C-147.68 411.45 -147.19 411.97 -146.68 412.52 C-139.05 420.97 -139.05 420.97 -130.29 428.17 C-129.63 428.17 -128.97 428.17 -128.29 428.17 C-128.29 428.83 -128.29 429.49 -128.29 430.17 C-125.66 432.57 -125.66 432.57 -122.29 433.17 C-122.29 433.83 -122.29 434.49 -122.29 435.17 C-119.07 437.48 -119.07 437.48 -115.29 438.17 C-115.29 438.83 -115.29 439.49 -115.29 440.17 C-113.12 441.77 -113.12 441.77 -110.42 443.29 C-109.06 444.1 -109.06 444.1 -107.68 444.93 C-105.45 446.32 -105.45 446.32 -103.29 446.17 C-103.29 446.83 -103.29 447.49 -103.29 448.17 C-102.3 448.17 -101.31 448.17 -100.29 448.17 C-100.29 448.83 -100.29 449.49 -100.29 450.17 C-98.64 450.5 -96.99 450.83 -95.29 451.17 C-95.29 451.83 -95.29 452.49 -95.29 453.17 C-94.3 453.58 -93.31 453.99 -92.29 454.42 C-89.66 455.54 -87.09 456.75 -84.54 458.04 C-76.31 462.18 -68.22 465.66 -59.36 468.27 C-56.75 469.03 -54.18 469.85 -51.61 470.73 C-50.17 471.21 -48.73 471.69 -47.29 472.17 C-46.55 472.41 -45.81 472.66 -45.05 472.91 C-33.7 476.51 -22.38 478.42 -10.54 478.96 C-7.29 479.17 -7.29 479.17 -4.96 479.67 C15.47 483.48 40.58 480.31 60.71 475.17 C61.04 474.84 61.37 474.51 61.71 474.17 C62.88 473.92 64.06 473.67 65.27 473.42 C76.82 470.94 87.93 466.96 98.71 462.17 C99.6 461.79 100.48 461.41 101.4 461.02 C109.18 457.64 116.39 453.45 123.71 449.17 C124.92 448.47 126.14 447.78 127.35 447.09 C129.96 445.59 132.57 444.1 135.14 442.54 C135.82 442.14 136.5 441.73 137.2 441.32 C137.7 440.94 138.2 440.56 138.71 440.17 C138.71 439.51 138.71 438.85 138.71 438.17 C139.88 437.7 139.88 437.7 141.08 437.23 C143.63 436.24 143.63 436.24 145.71 435.17 C145.71 434.51 145.71 433.85 145.71 433.17 C147.71 432.17 149.71 431.17 151.71 430.17 C151.71 429.51 151.71 428.85 151.71 428.17 C152.24 427.95 152.78 427.73 153.33 427.51 C156.55 425.69 159.09 423.25 161.77 420.73 C162.3 420.24 162.83 419.75 163.37 419.24 C164.83 417.89 166.27 416.53 167.71 415.17 C168.32 414.6 168.94 414.03 169.58 413.45 C170.93 412.2 170.93 412.2 170.71 410.17 C171.7 409.84 172.69 409.51 173.71 409.17 C177.35 405.69 177.35 405.69 178.71 401.17 C179.37 401.17 180.03 401.17 180.71 401.17 C183.11 398.53 183.11 398.53 183.71 395.17 C184.37 395.17 185.03 395.17 185.71 395.17 C188.02 391.95 188.02 391.95 188.71 388.17 C189.37 388.17 190.03 388.17 190.71 388.17 C192.33 386.03 192.33 386.03 193.96 383.29 C194.58 382.29 195.2 381.28 195.84 380.25 C196.46 379.23 197.07 378.21 197.71 377.17 C198.24 376.3 198.77 375.43 199.32 374.53 C200.81 372.09 202.26 369.63 203.71 367.17 C204.15 366.42 204.59 365.67 205.05 364.89 C207.68 360.33 209.8 355.73 211.68 350.8 C212.75 348.06 213.91 345.37 215.08 342.67 C217.26 337.46 219.15 332.19 220.96 326.86 C221.22 326.1 221.47 325.35 221.74 324.57 C223.23 320.09 224.1 315.85 224.71 311.17 C225.04 310.84 225.37 310.51 225.71 310.17 C235.96 270.02 233.24 222.28 216.71 184.17 C216.06 182.52 215.41 180.88 214.77 179.23 C210.93 169.62 210.93 169.62 206.1 160.49 C204.8 158.32 204.16 156.63 203.71 154.17 C203.05 154.17 202.39 154.17 201.71 154.17 C201.38 152.52 201.05 150.87 200.71 149.17 C200.05 149.17 199.39 149.17 198.71 149.17 C198.57 148.36 198.57 148.36 198.42 147.53 C197.5 144.47 195.98 142.11 194.27 139.42 C193.65 138.43 193.03 137.45 192.4 136.43 C191.84 135.69 191.28 134.94 190.71 134.17 C190.05 134.17 189.39 134.17 188.71 134.17 C188.24 132.99 188.24 132.99 187.77 131.79 C186.78 129.24 186.78 129.24 185.71 127.17 C185.05 127.17 184.39 127.17 183.71 127.17 C182.71 125.17 181.71 123.17 180.71 121.17 C180.05 121.17 179.39 121.17 178.71 121.17 C178.3 120.29 178.3 120.29 177.89 119.39 C172.75 109.75 162.38 100.67 153.71 94.17 C153.05 94.17 152.39 94.17 151.71 94.17 C151.71 93.51 151.71 92.85 151.71 92.17 C149.07 89.77 149.07 89.77 145.71 89.17 C145.71 88.51 145.71 87.85 145.71 87.17 C144.39 86.84 143.07 86.51 141.71 86.17 C141.71 85.51 141.71 84.85 141.71 84.17 C139.49 82.55 137.28 81.06 134.96 79.61 C134.32 79.19 133.69 78.78 133.04 78.36 C129.95 76.4 127.28 74.92 123.71 74.17 C123.71 73.51 123.71 72.85 123.71 72.17 C122.84 71.73 121.96 71.3 121.07 70.85 C120.21 70.42 120.21 70.42 119.34 69.98 C118.07 69.35 116.79 68.71 115.52 68.08 C112.56 66.61 109.62 65.12 106.7 63.58 C98.93 59.5 90.95 56.6 82.65 53.83 C81.01 53.27 79.38 52.68 77.76 52.08 C52.76 43 18.93 37.52 -7.29 43.17 Z " fill="#000000" transform="translate(968.29296875,718.83203125)"/>
<path d="M0 0 C0.79 -0.01 1.59 -0.02 2.41 -0.03 C3.27 -0.03 4.13 -0.03 5.02 -0.04 C5.94 -0.05 6.85 -0.06 7.8 -0.06 C10.83 -0.09 13.86 -0.11 16.9 -0.12 C17.93 -0.12 18.97 -0.13 20.04 -0.14 C25.55 -0.16 31.06 -0.18 36.57 -0.2 C41.11 -0.21 45.65 -0.24 50.19 -0.28 C55.68 -0.33 61.18 -0.35 66.67 -0.36 C68.76 -0.37 70.85 -0.38 72.93 -0.41 C84.66 -0.53 94.34 -0.36 104.96 5.15 C105.95 5.65 105.95 5.65 106.96 6.15 C106.96 6.81 106.96 7.47 106.96 8.15 C107.7 8.39 108.45 8.64 109.21 8.88 C115.89 11.97 119.92 19.35 122.67 25.92 C125.7 34.15 125.69 41.94 125.63 50.59 C125.63 52.25 125.63 53.9 125.64 55.55 C125.65 59 125.64 62.45 125.61 65.89 C125.59 70.27 125.6 74.65 125.63 79.03 C125.65 82.44 125.64 85.85 125.63 89.26 C125.63 90.87 125.63 92.49 125.64 94.1 C125.71 105.44 124.11 113.86 118.96 124.15 C118.3 124.15 117.64 124.15 116.96 124.15 C116.72 124.9 116.48 125.64 116.23 126.4 C113.2 132.97 105.9 137.06 99.47 139.86 C89.95 143.36 80.18 142.88 70.15 142.82 C68.05 142.82 65.94 142.83 63.84 142.83 C59.45 142.84 55.07 142.83 50.68 142.81 C45.09 142.78 39.5 142.79 33.91 142.82 C29.57 142.84 25.23 142.84 20.9 142.82 C18.84 142.82 16.78 142.82 14.72 142.84 C1.19 142.9 -11.96 142.79 -22.45 132.9 C-23.14 132.19 -23.14 132.19 -23.85 131.47 C-24.36 130.98 -24.88 130.5 -25.41 130 C-26.67 128.77 -27.86 127.47 -29.04 126.15 C-29.04 125.49 -29.04 124.83 -29.04 124.15 C-29.7 124.15 -30.36 124.15 -31.04 124.15 C-31.85 122.41 -32.67 120.66 -33.48 118.9 C-33.93 117.93 -34.38 116.95 -34.85 115.95 C-36.89 111.15 -37.18 107.17 -37.23 101.93 C-37.24 101.21 -37.25 100.49 -37.26 99.74 C-37.28 97.36 -37.3 94.98 -37.31 92.6 C-37.32 91.78 -37.32 90.96 -37.33 90.11 C-37.35 85.78 -37.37 81.44 -37.39 77.1 C-37.4 73.53 -37.43 69.96 -37.47 66.39 C-37.52 62.06 -37.54 57.73 -37.55 53.4 C-37.56 51.76 -37.57 50.12 -37.6 48.48 C-37.76 36.99 -36.25 28.58 -31.04 18.15 C-30.38 18.15 -29.72 18.15 -29.04 18.15 C-28.83 17.43 -28.63 16.71 -28.41 15.97 C-26.56 12.18 -24.44 10.63 -21.04 8.15 C-20.38 8.15 -19.72 8.15 -19.04 8.15 C-19.04 7.49 -19.04 6.83 -19.04 6.15 C-17.29 5.34 -15.54 4.53 -13.79 3.72 C-12.81 3.26 -11.84 2.81 -10.83 2.35 C-7.15 0.77 -4 0.03 0 0 Z M4.96 42.15 C4.96 61.29 4.96 80.43 4.96 100.15 C30.7 100.15 56.44 100.15 82.96 100.15 C82.96 81.01 82.96 61.87 82.96 42.15 C57.22 42.15 31.48 42.15 4.96 42.15 Z " fill="#000000" transform="translate(476.03807067871094,898.8460998535156)"/>
<path d="M0 0 C0.79 -0.01 1.59 -0.02 2.41 -0.03 C3.27 -0.03 4.13 -0.03 5.02 -0.04 C5.94 -0.05 6.85 -0.06 7.8 -0.06 C10.83 -0.09 13.86 -0.11 16.9 -0.12 C17.93 -0.12 18.97 -0.13 20.04 -0.14 C25.55 -0.16 31.06 -0.18 36.57 -0.2 C41.11 -0.21 45.65 -0.24 50.19 -0.28 C55.68 -0.33 61.18 -0.35 66.67 -0.36 C68.76 -0.37 70.85 -0.38 72.93 -0.41 C84.66 -0.53 94.34 -0.36 104.96 5.15 C105.95 5.65 105.95 5.65 106.96 6.15 C106.96 6.81 106.96 7.47 106.96 8.15 C107.7 8.39 108.45 8.64 109.21 8.88 C115.89 11.97 119.92 19.35 122.67 25.92 C125.7 34.15 125.69 41.94 125.63 50.59 C125.63 52.25 125.63 53.9 125.64 55.55 C125.65 59 125.64 62.45 125.61 65.89 C125.59 70.27 125.6 74.65 125.63 79.03 C125.65 82.44 125.64 85.85 125.63 89.26 C125.63 90.87 125.63 92.49 125.64 94.1 C125.71 105.44 124.11 113.86 118.96 124.15 C118.3 124.15 117.64 124.15 116.96 124.15 C116.72 124.9 116.48 125.64 116.23 126.4 C113.2 132.97 105.9 137.06 99.47 139.86 C89.95 143.36 80.18 142.88 70.15 142.82 C68.05 142.82 65.94 142.83 63.84 142.83 C59.45 142.84 55.07 142.83 50.68 142.81 C45.09 142.78 39.5 142.79 33.91 142.82 C29.57 142.84 25.23 142.84 20.9 142.82 C18.84 142.82 16.78 142.82 14.72 142.84 C1.19 142.9 -11.96 142.79 -22.45 132.9 C-23.14 132.19 -23.14 132.19 -23.85 131.47 C-24.36 130.98 -24.88 130.5 -25.41 130 C-26.67 128.77 -27.86 127.47 -29.04 126.15 C-29.04 125.49 -29.04 124.83 -29.04 124.15 C-29.7 124.15 -30.36 124.15 -31.04 124.15 C-31.85 122.41 -32.67 120.66 -33.48 118.9 C-33.93 117.93 -34.38 116.95 -34.85 115.95 C-36.89 111.15 -37.18 107.17 -37.23 101.93 C-37.24 101.21 -37.25 100.49 -37.26 99.74 C-37.28 97.36 -37.3 94.98 -37.31 92.6 C-37.32 91.78 -37.32 90.96 -37.33 90.11 C-37.35 85.78 -37.37 81.44 -37.39 77.1 C-37.4 73.53 -37.43 69.96 -37.47 66.39 C-37.52 62.06 -37.54 57.73 -37.55 53.4 C-37.56 51.76 -37.57 50.12 -37.6 48.48 C-37.76 36.99 -36.25 28.58 -31.04 18.15 C-30.38 18.15 -29.72 18.15 -29.04 18.15 C-28.83 17.43 -28.63 16.71 -28.41 15.97 C-26.56 12.18 -24.44 10.63 -21.04 8.15 C-20.38 8.15 -19.72 8.15 -19.04 8.15 C-19.04 7.49 -19.04 6.83 -19.04 6.15 C-17.29 5.34 -15.54 4.53 -13.79 3.72 C-12.81 3.26 -11.84 2.81 -10.83 2.35 C-7.15 0.77 -4 0.03 0 0 Z M4.96 42.15 C4.96 61.29 4.96 80.43 4.96 100.15 C30.7 100.15 56.44 100.15 82.96 100.15 C82.96 81.01 82.96 61.87 82.96 42.15 C57.22 42.15 31.48 42.15 4.96 42.15 Z " fill="#000000" transform="translate(236.03807067871094,898.8460998535156)"/>
<path d="M0 0 C0.79 -0.01 1.59 -0.02 2.41 -0.03 C3.27 -0.03 4.13 -0.03 5.02 -0.04 C5.94 -0.05 6.85 -0.06 7.8 -0.06 C10.83 -0.09 13.86 -0.11 16.9 -0.12 C17.93 -0.12 18.97 -0.13 20.04 -0.14 C25.55 -0.16 31.06 -0.18 36.57 -0.2 C41.11 -0.21 45.65 -0.24 50.19 -0.28 C55.68 -0.33 61.18 -0.35 66.67 -0.36 C68.76 -0.37 70.85 -0.38 72.93 -0.41 C84.66 -0.53 94.34 -0.36 104.96 5.15 C105.95 5.65 105.95 5.65 106.96 6.15 C106.96 6.81 106.96 7.47 106.96 8.15 C107.7 8.39 108.45 8.64 109.21 8.88 C115.89 11.97 119.92 19.35 122.67 25.92 C125.7 34.15 125.69 41.94 125.63 50.59 C125.63 52.25 125.63 53.9 125.64 55.55 C125.65 59 125.64 62.45 125.61 65.89 C125.59 70.27 125.6 74.65 125.63 79.03 C125.65 82.44 125.64 85.85 125.63 89.26 C125.63 90.87 125.63 92.49 125.64 94.1 C125.71 105.44 124.11 113.86 118.96 124.15 C118.3 124.15 117.64 124.15 116.96 124.15 C116.72 124.9 116.48 125.64 116.23 126.4 C113.2 132.97 105.9 137.06 99.47 139.86 C89.95 143.36 80.18 142.88 70.15 142.82 C68.05 142.82 65.94 142.83 63.84 142.83 C59.45 142.84 55.07 142.83 50.68 142.81 C45.09 142.78 39.5 142.79 33.91 142.82 C29.57 142.84 25.23 142.84 20.9 142.82 C18.84 142.82 16.78 142.82 14.72 142.84 C1.19 142.9 -11.96 142.79 -22.45 132.9 C-23.14 132.19 -23.14 132.19 -23.85 131.47 C-24.36 130.98 -24.88 130.5 -25.41 130 C-26.67 128.77 -27.86 127.47 -29.04 126.15 C-29.04 125.49 -29.04 124.83 -29.04 124.15 C-29.7 124.15 -30.36 124.15 -31.04 124.15 C-31.85 122.41 -32.67 120.66 -33.48 118.9 C-33.93 117.93 -34.38 116.95 -34.85 115.95 C-36.89 111.15 -37.18 107.17 -37.23 101.93 C-37.24 101.21 -37.25 100.49 -37.26 99.74 C-37.28 97.36 -37.3 94.98 -37.31 92.6 C-37.32 91.78 -37.32 90.96 -37.33 90.11 C-37.35 85.78 -37.37 81.44 -37.39 77.1 C-37.4 73.53 -37.43 69.96 -37.47 66.39 C-37.52 62.06 -37.54 57.73 -37.55 53.4 C-37.56 51.76 -37.57 50.12 -37.6 48.48 C-37.76 36.99 -36.25 28.58 -31.04 18.15 C-30.38 18.15 -29.72 18.15 -29.04 18.15 C-28.83 17.43 -28.63 16.71 -28.41 15.97 C-26.56 12.18 -24.44 10.63 -21.04 8.15 C-20.38 8.15 -19.72 8.15 -19.04 8.15 C-19.04 7.49 -19.04 6.83 -19.04 6.15 C-17.29 5.34 -15.54 4.53 -13.79 3.72 C-12.81 3.26 -11.84 2.81 -10.83 2.35 C-7.15 0.77 -4 0.03 0 0 Z M4.96 42.15 C4.96 61.29 4.96 80.43 4.96 100.15 C30.7 100.15 56.44 100.15 82.96 100.15 C82.96 81.01 82.96 61.87 82.96 42.15 C57.22 42.15 31.48 42.15 4.96 42.15 Z " fill="#000000" transform="translate(476.03807067871094,718.8460998535156)"/>
<path d="M0 0 C0.79 -0.01 1.59 -0.02 2.41 -0.03 C3.27 -0.03 4.13 -0.03 5.02 -0.04 C5.94 -0.05 6.85 -0.06 7.8 -0.06 C10.83 -0.09 13.86 -0.11 16.9 -0.12 C17.93 -0.12 18.97 -0.13 20.04 -0.14 C25.55 -0.16 31.06 -0.18 36.57 -0.2 C41.11 -0.21 45.65 -0.24 50.19 -0.28 C55.68 -0.33 61.18 -0.35 66.67 -0.36 C68.76 -0.37 70.85 -0.38 72.93 -0.41 C84.66 -0.53 94.34 -0.36 104.96 5.15 C105.95 5.65 105.95 5.65 106.96 6.15 C106.96 6.81 106.96 7.47 106.96 8.15 C107.7 8.39 108.45 8.64 109.21 8.88 C115.89 11.97 119.92 19.35 122.67 25.92 C125.7 34.15 125.69 41.94 125.63 50.59 C125.63 52.25 125.63 53.9 125.64 55.55 C125.65 59 125.64 62.45 125.61 65.89 C125.59 70.27 125.6 74.65 125.63 79.03 C125.65 82.44 125.64 85.85 125.63 89.26 C125.63 90.87 125.63 92.49 125.64 94.1 C125.71 105.44 124.11 113.86 118.96 124.15 C118.3 124.15 117.64 124.15 116.96 124.15 C116.72 124.9 116.48 125.64 116.23 126.4 C113.2 132.97 105.9 137.06 99.47 139.86 C89.95 143.36 80.18 142.88 70.15 142.82 C68.05 142.82 65.94 142.83 63.84 142.83 C59.45 142.84 55.07 142.83 50.68 142.81 C45.09 142.78 39.5 142.79 33.91 142.82 C29.57 142.84 25.23 142.84 20.9 142.82 C18.84 142.82 16.78 142.82 14.72 142.84 C1.19 142.9 -11.96 142.79 -22.45 132.9 C-23.14 132.19 -23.14 132.19 -23.85 131.47 C-24.36 130.98 -24.88 130.5 -25.41 130 C-26.67 128.77 -27.86 127.47 -29.04 126.15 C-29.04 125.49 -29.04 124.83 -29.04 124.15 C-29.7 124.15 -30.36 124.15 -31.04 124.15 C-31.85 122.41 -32.67 120.66 -33.48 118.9 C-33.93 117.93 -34.38 116.95 -34.85 115.95 C-36.89 111.15 -37.18 107.17 -37.23 101.93 C-37.24 101.21 -37.25 100.49 -37.26 99.74 C-37.28 97.36 -37.3 94.98 -37.31 92.6 C-37.32 91.78 -37.32 90.96 -37.33 90.11 C-37.35 85.78 -37.37 81.44 -37.39 77.1 C-37.4 73.53 -37.43 69.96 -37.47 66.39 C-37.52 62.06 -37.54 57.73 -37.55 53.4 C-37.56 51.76 -37.57 50.12 -37.6 48.48 C-37.76 36.99 -36.25 28.58 -31.04 18.15 C-30.38 18.15 -29.72 18.15 -29.04 18.15 C-28.83 17.43 -28.63 16.71 -28.41 15.97 C-26.56 12.18 -24.44 10.63 -21.04 8.15 C-20.38 8.15 -19.72 8.15 -19.04 8.15 C-19.04 7.49 -19.04 6.83 -19.04 6.15 C-17.29 5.34 -15.54 4.53 -13.79 3.72 C-12.81 3.26 -11.84 2.81 -10.83 2.35 C-7.15 0.77 -4 0.03 0 0 Z M4.96 42.15 C4.96 61.29 4.96 80.43 4.96 100.15 C30.7 100.15 56.44 100.15 82.96 100.15 C82.96 81.01 82.96 61.87 82.96 42.15 C57.22 42.15 31.48 42.15 4.96 42.15 Z " fill="#000000" transform="translate(236.03807067871094,718.8460998535156)"/>
<path d="M0 0 C0.79 -0.01 1.59 -0.02 2.41 -0.03 C3.27 -0.03 4.13 -0.03 5.02 -0.04 C5.94 -0.05 6.85 -0.06 7.8 -0.06 C10.83 -0.09 13.86 -0.11 16.9 -0.12 C17.93 -0.12 18.97 -0.13 20.04 -0.14 C25.55 -0.16 31.06 -0.18 36.57 -0.2 C41.11 -0.21 45.65 -0.24 50.19 -0.28 C55.68 -0.33 61.18 -0.35 66.67 -0.36 C68.76 -0.37 70.85 -0.38 72.93 -0.41 C84.66 -0.53 94.34 -0.36 104.96 5.15 C105.95 5.65 105.95 5.65 106.96 6.15 C106.96 6.81 106.96 7.47 106.96 8.15 C107.7 8.39 108.45 8.64 109.21 8.88 C115.89 11.97 119.92 19.35 122.67 25.92 C125.7 34.15 125.69 41.94 125.63 50.59 C125.63 52.25 125.63 53.9 125.64 55.55 C125.65 59 125.64 62.45 125.61 65.89 C125.59 70.27 125.6 74.65 125.63 79.03 C125.65 82.44 125.64 85.85 125.63 89.26 C125.63 90.87 125.63 92.49 125.64 94.1 C125.71 105.44 124.11 113.86 118.96 124.15 C118.3 124.15 117.64 124.15 116.96 124.15 C116.72 124.9 116.48 125.64 116.23 126.4 C113.2 132.97 105.9 137.06 99.47 139.86 C89.95 143.36 80.18 142.88 70.15 142.82 C68.05 142.82 65.94 142.83 63.84 142.83 C59.45 142.84 55.07 142.83 50.68 142.81 C45.09 142.78 39.5 142.79 33.91 142.82 C29.57 142.84 25.23 142.84 20.9 142.82 C18.84 142.82 16.78 142.82 14.72 142.84 C1.19 142.9 -11.96 142.79 -22.45 132.9 C-23.14 132.19 -23.14 132.19 -23.85 131.47 C-24.36 130.98 -24.88 130.5 -25.41 130 C-26.67 128.77 -27.86 127.47 -29.04 126.15 C-29.04 125.49 -29.04 124.83 -29.04 124.15 C-29.7 124.15 -30.36 124.15 -31.04 124.15 C-31.85 122.41 -32.67 120.66 -33.48 118.9 C-33.93 117.93 -34.38 116.95 -34.85 115.95 C-36.89 111.15 -37.18 107.17 -37.23 101.93 C-37.24 101.21 -37.25 100.49 -37.26 99.74 C-37.28 97.36 -37.3 94.98 -37.31 92.6 C-37.32 91.78 -37.32 90.96 -37.33 90.11 C-37.35 85.78 -37.37 81.44 -37.39 77.1 C-37.4 73.53 -37.43 69.96 -37.47 66.39 C-37.52 62.06 -37.54 57.73 -37.55 53.4 C-37.56 51.76 -37.57 50.12 -37.6 48.48 C-37.76 36.99 -36.25 28.58 -31.04 18.15 C-30.38 18.15 -29.72 18.15 -29.04 18.15 C-28.83 17.43 -28.63 16.71 -28.41 15.97 C-26.56 12.18 -24.44 10.63 -21.04 8.15 C-20.38 8.15 -19.72 8.15 -19.04 8.15 C-19.04 7.49 -19.04 6.83 -19.04 6.15 C-17.29 5.34 -15.54 4.53 -13.79 3.72 C-12.81 3.26 -11.84 2.81 -10.83 2.35 C-7.15 0.77 -4 0.03 0 0 Z M4.96 42.15 C4.96 61.29 4.96 80.43 4.96 100.15 C30.7 100.15 56.44 100.15 82.96 100.15 C82.96 81.01 82.96 61.87 82.96 42.15 C57.22 42.15 31.48 42.15 4.96 42.15 Z " fill="#000000" transform="translate(956.0380706787109,538.8460998535156)"/>
<path d="M0 0 C0.79 -0.01 1.59 -0.02 2.41 -0.03 C3.27 -0.03 4.13 -0.03 5.02 -0.04 C5.94 -0.05 6.85 -0.06 7.8 -0.06 C10.83 -0.09 13.86 -0.11 16.9 -0.12 C17.93 -0.12 18.97 -0.13 20.04 -0.14 C25.55 -0.16 31.06 -0.18 36.57 -0.2 C41.11 -0.21 45.65 -0.24 50.19 -0.28 C55.68 -0.33 61.18 -0.35 66.67 -0.36 C68.76 -0.37 70.85 -0.38 72.93 -0.41 C84.66 -0.53 94.34 -0.36 104.96 5.15 C105.95 5.65 105.95 5.65 106.96 6.15 C106.96 6.81 106.96 7.47 106.96 8.15 C107.7 8.39 108.45 8.64 109.21 8.88 C115.89 11.97 119.92 19.35 122.67 25.92 C125.7 34.15 125.69 41.94 125.63 50.59 C125.63 52.25 125.63 53.9 125.64 55.55 C125.65 59 125.64 62.45 125.61 65.89 C125.59 70.27 125.6 74.65 125.63 79.03 C125.65 82.44 125.64 85.85 125.63 89.26 C125.63 90.87 125.63 92.49 125.64 94.1 C125.71 105.44 124.11 113.86 118.96 124.15 C118.3 124.15 117.64 124.15 116.96 124.15 C116.72 124.9 116.48 125.64 116.23 126.4 C113.2 132.97 105.9 137.06 99.47 139.86 C89.95 143.36 80.18 142.88 70.15 142.82 C68.05 142.82 65.94 142.83 63.84 142.83 C59.45 142.84 55.07 142.83 50.68 142.81 C45.09 142.78 39.5 142.79 33.91 142.82 C29.57 142.84 25.23 142.84 20.9 142.82 C18.84 142.82 16.78 142.82 14.72 142.84 C1.19 142.9 -11.96 142.79 -22.45 132.9 C-23.14 132.19 -23.14 132.19 -23.85 131.47 C-24.36 130.98 -24.88 130.5 -25.41 130 C-26.67 128.77 -27.86 127.47 -29.04 126.15 C-29.04 125.49 -29.04 124.83 -29.04 124.15 C-29.7 124.15 -30.36 124.15 -31.04 124.15 C-31.85 122.41 -32.67 120.66 -33.48 118.9 C-33.93 117.93 -34.38 116.95 -34.85 115.95 C-36.89 111.15 -37.18 107.17 -37.23 101.93 C-37.24 101.21 -37.25 100.49 -37.26 99.74 C-37.28 97.36 -37.3 94.98 -37.31 92.6 C-37.32 91.78 -37.32 90.96 -37.33 90.11 C-37.35 85.78 -37.37 81.44 -37.39 77.1 C-37.4 73.53 -37.43 69.96 -37.47 66.39 C-37.52 62.06 -37.54 57.73 -37.55 53.4 C-37.56 51.76 -37.57 50.12 -37.6 48.48 C-37.76 36.99 -36.25 28.58 -31.04 18.15 C-30.38 18.15 -29.72 18.15 -29.04 18.15 C-28.83 17.43 -28.63 16.71 -28.41 15.97 C-26.56 12.18 -24.44 10.63 -21.04 8.15 C-20.38 8.15 -19.72 8.15 -19.04 8.15 C-19.04 7.49 -19.04 6.83 -19.04 6.15 C-17.29 5.34 -15.54 4.53 -13.79 3.72 C-12.81 3.26 -11.84 2.81 -10.83 2.35 C-7.15 0.77 -4 0.03 0 0 Z M4.96 42.15 C4.96 61.29 4.96 80.43 4.96 100.15 C30.7 100.15 56.44 100.15 82.96 100.15 C82.96 81.01 82.96 61.87 82.96 42.15 C57.22 42.15 31.48 42.15 4.96 42.15 Z " fill="#000000" transform="translate(716.0380706787109,538.8460998535156)"/>
<path d="M0 0 C0.79 -0.01 1.59 -0.02 2.41 -0.03 C3.27 -0.03 4.13 -0.03 5.02 -0.04 C5.94 -0.05 6.85 -0.06 7.8 -0.06 C10.83 -0.09 13.86 -0.11 16.9 -0.12 C17.93 -0.12 18.97 -0.13 20.04 -0.14 C25.55 -0.16 31.06 -0.18 36.57 -0.2 C41.11 -0.21 45.65 -0.24 50.19 -0.28 C55.68 -0.33 61.18 -0.35 66.67 -0.36 C68.76 -0.37 70.85 -0.38 72.93 -0.41 C84.66 -0.53 94.34 -0.36 104.96 5.15 C105.95 5.65 105.95 5.65 106.96 6.15 C106.96 6.81 106.96 7.47 106.96 8.15 C107.7 8.39 108.45 8.64 109.21 8.88 C115.89 11.97 119.92 19.35 122.67 25.92 C125.7 34.15 125.69 41.94 125.63 50.59 C125.63 52.25 125.63 53.9 125.64 55.55 C125.65 59 125.64 62.45 125.61 65.89 C125.59 70.27 125.6 74.65 125.63 79.03 C125.65 82.44 125.64 85.85 125.63 89.26 C125.63 90.87 125.63 92.49 125.64 94.1 C125.71 105.44 124.11 113.86 118.96 124.15 C118.3 124.15 117.64 124.15 116.96 124.15 C116.72 124.9 116.48 125.64 116.23 126.4 C113.2 132.97 105.9 137.06 99.47 139.86 C89.95 143.36 80.18 142.88 70.15 142.82 C68.05 142.82 65.94 142.83 63.84 142.83 C59.45 142.84 55.07 142.83 50.68 142.81 C45.09 142.78 39.5 142.79 33.91 142.82 C29.57 142.84 25.23 142.84 20.9 142.82 C18.84 142.82 16.78 142.82 14.72 142.84 C1.19 142.9 -11.96 142.79 -22.45 132.9 C-23.14 132.19 -23.14 132.19 -23.85 131.47 C-24.36 130.98 -24.88 130.5 -25.41 130 C-26.67 128.77 -27.86 127.47 -29.04 126.15 C-29.04 125.49 -29.04 124.83 -29.04 124.15 C-29.7 124.15 -30.36 124.15 -31.04 124.15 C-31.85 122.41 -32.67 120.66 -33.48 118.9 C-33.93 117.93 -34.38 116.95 -34.85 115.95 C-36.89 111.15 -37.18 107.17 -37.23 101.93 C-37.24 101.21 -37.25 100.49 -37.26 99.74 C-37.28 97.36 -37.3 94.98 -37.31 92.6 C-37.32 91.78 -37.32 90.96 -37.33 90.11 C-37.35 85.78 -37.37 81.44 -37.39 77.1 C-37.4 73.53 -37.43 69.96 -37.47 66.39 C-37.52 62.06 -37.54 57.73 -37.55 53.4 C-37.56 51.76 -37.57 50.12 -37.6 48.48 C-37.76 36.99 -36.25 28.58 -31.04 18.15 C-30.38 18.15 -29.72 18.15 -29.04 18.15 C-28.83 17.43 -28.63 16.71 -28.41 15.97 C-26.56 12.18 -24.44 10.63 -21.04 8.15 C-20.38 8.15 -19.72 8.15 -19.04 8.15 C-19.04 7.49 -19.04 6.83 -19.04 6.15 C-17.29 5.34 -15.54 4.53 -13.79 3.72 C-12.81 3.26 -11.84 2.81 -10.83 2.35 C-7.15 0.77 -4 0.03 0 0 Z M4.96 42.15 C4.96 61.29 4.96 80.43 4.96 100.15 C30.7 100.15 56.44 100.15 82.96 100.15 C82.96 81.01 82.96 61.87 82.96 42.15 C57.22 42.15 31.48 42.15 4.96 42.15 Z " fill="#000000" transform="translate(476.03807067871094,538.8460998535156)"/>
<path d="M0 0 C0.79 -0.01 1.59 -0.02 2.41 -0.03 C3.27 -0.03 4.13 -0.03 5.02 -0.04 C5.94 -0.05 6.85 -0.06 7.8 -0.06 C10.83 -0.09 13.86 -0.11 16.9 -0.12 C17.93 -0.12 18.97 -0.13 20.04 -0.14 C25.55 -0.16 31.06 -0.18 36.57 -0.2 C41.11 -0.21 45.65 -0.24 50.19 -0.28 C55.68 -0.33 61.18 -0.35 66.67 -0.36 C68.76 -0.37 70.85 -0.38 72.93 -0.41 C84.66 -0.53 94.34 -0.36 104.96 5.15 C105.95 5.65 105.95 5.65 106.96 6.15 C106.96 6.81 106.96 7.47 106.96 8.15 C107.7 8.39 108.45 8.64 109.21 8.88 C115.89 11.97 119.92 19.35 122.67 25.92 C125.7 34.15 125.69 41.94 125.63 50.59 C125.63 52.25 125.63 53.9 125.64 55.55 C125.65 59 125.64 62.45 125.61 65.89 C125.59 70.27 125.6 74.65 125.63 79.03 C125.65 82.44 125.64 85.85 125.63 89.26 C125.63 90.87 125.63 92.49 125.64 94.1 C125.71 105.44 124.11 113.86 118.96 124.15 C118.3 124.15 117.64 124.15 116.96 124.15 C116.72 124.9 116.48 125.64 116.23 126.4 C113.2 132.97 105.9 137.06 99.47 139.86 C89.95 143.36 80.18 142.88 70.15 142.82 C68.05 142.82 65.94 142.83 63.84 142.83 C59.45 142.84 55.07 142.83 50.68 142.81 C45.09 142.78 39.5 142.79 33.91 142.82 C29.57 142.84 25.23 142.84 20.9 142.82 C18.84 142.82 16.78 142.82 14.72 142.84 C1.19 142.9 -11.96 142.79 -22.45 132.9 C-23.14 132.19 -23.14 132.19 -23.85 131.47 C-24.36 130.98 -24.88 130.5 -25.41 130 C-26.67 128.77 -27.86 127.47 -29.04 126.15 C-29.04 125.49 -29.04 124.83 -29.04 124.15 C-29.7 124.15 -30.36 124.15 -31.04 124.15 C-31.85 122.41 -32.67 120.66 -33.48 118.9 C-33.93 117.93 -34.38 116.95 -34.85 115.95 C-36.89 111.15 -37.18 107.17 -37.23 101.93 C-37.24 101.21 -37.25 100.49 -37.26 99.74 C-37.28 97.36 -37.3 94.98 -37.31 92.6 C-37.32 91.78 -37.32 90.96 -37.33 90.11 C-37.35 85.78 -37.37 81.44 -37.39 77.1 C-37.4 73.53 -37.43 69.96 -37.47 66.39 C-37.52 62.06 -37.54 57.73 -37.55 53.4 C-37.56 51.76 -37.57 50.12 -37.6 48.48 C-37.76 36.99 -36.25 28.58 -31.04 18.15 C-30.38 18.15 -29.72 18.15 -29.04 18.15 C-28.83 17.43 -28.63 16.71 -28.41 15.97 C-26.56 12.18 -24.44 10.63 -21.04 8.15 C-20.38 8.15 -19.72 8.15 -19.04 8.15 C-19.04 7.49 -19.04 6.83 -19.04 6.15 C-17.29 5.34 -15.54 4.53 -13.79 3.72 C-12.81 3.26 -11.84 2.81 -10.83 2.35 C-7.15 0.77 -4 0.03 0 0 Z M4.96 42.15 C4.96 61.29 4.96 80.43 4.96 100.15 C30.7 100.15 56.44 100.15 82.96 100.15 C82.96 81.01 82.96 61.87 82.96 42.15 C57.22 42.15 31.48 42.15 4.96 42.15 Z " fill="#000000" transform="translate(236.03807067871094,538.8460998535156)"/>
<path d="M0 0 C0 0.66 0 1.32 0 2 C0.64 2.27 1.28 2.54 1.94 2.81 C4 4 4 4 5 7 C5.66 7 6.32 7 7 7 C10.18 14.61 10.81 20.52 7.69 28.25 C4.45 33.53 0.63 37.3 -4.05 41.3 C-6.49 43.42 -8.75 45.69 -11 48 C-62.67 99.67 -114.33 151.33 -166 203 C-166.68 203.8 -166.68 203.8 -167.38 204.62 C-172.19 208.7 -177.39 209.55 -183.51 209.36 C-192.49 208.07 -198.67 201.54 -204.3 194.95 C-206.42 192.51 -208.69 190.25 -211 188 C-234.33 164.67 -257.67 141.33 -281 118 C-281.51 117.53 -282.02 117.06 -282.54 116.58 C-285.89 112.95 -287.17 107.85 -287.44 103 C-287.18 97.13 -284.39 92.7 -280.75 88.25 C-275.66 84.09 -270.73 81.28 -264.01 81.68 C-254.37 83.22 -248.76 88.94 -242.66 96.08 C-240.56 98.51 -238.3 100.76 -236 103 C-191 148 -191 148 -188.38 150.69 C-186.03 153.11 -186.03 153.11 -183 155 C-183 155.66 -183 156.32 -183 157 C-181.68 157 -180.36 157 -179 157 C-179 156.34 -179 155.68 -179 155 C-177.43 153.45 -177.43 153.45 -175.31 151.69 C-172.05 148.92 -168.99 146.07 -166 143 C-119.33 96.33 -72.67 49.67 -26 3 C-25.53 2.49 -25.06 1.98 -24.57 1.46 C-17.88 -4.75 -7.66 -3.83 0 0 Z " fill="#000000" transform="translate(1121,892)"/>
<path d="M0 0 C0.89 -0.01 1.79 -0.01 2.71 -0.02 C5.67 -0.04 8.63 -0.05 11.59 -0.06 C13.11 -0.07 13.11 -0.07 14.66 -0.07 C20.02 -0.09 25.37 -0.11 30.73 -0.12 C36.26 -0.13 41.78 -0.16 47.31 -0.2 C51.57 -0.23 55.82 -0.24 60.08 -0.24 C62.12 -0.25 64.15 -0.26 66.19 -0.28 C69.04 -0.3 71.9 -0.3 74.75 -0.29 C75.59 -0.31 76.42 -0.32 77.28 -0.33 C84.43 -0.27 89.45 1.97 94.95 6.49 C99.31 11.85 100.71 16.89 100.49 23.68 C99.58 30.13 96.13 35.11 91.14 39.18 C85.76 41.94 81.62 42.6 75.63 42.52 C74.4 42.52 74.4 42.52 73.14 42.52 C70.46 42.52 67.77 42.49 65.08 42.47 C63.2 42.46 61.33 42.46 59.46 42.46 C54.54 42.45 49.63 42.42 44.72 42.38 C38.81 42.35 32.91 42.33 27 42.32 C18.05 42.29 9.09 42.23 0.14 42.18 C0.14 61.32 0.14 80.46 0.14 100.18 C2.45 100.51 4.76 100.84 7.14 101.18 C12.81 104.4 17.18 107.91 19.59 114.13 C21.32 120.66 20.7 126.59 17.33 132.43 C13.96 137.36 10.01 140.81 4.14 142.18 C-5.75 143.4 -15.44 141.93 -23.6 135.89 C-27.27 132.89 -30.7 129.71 -33.86 126.18 C-33.86 125.52 -33.86 124.86 -33.86 124.18 C-34.52 124.18 -35.18 124.18 -35.86 124.18 C-36.68 122.43 -37.49 120.68 -38.3 118.93 C-38.75 117.95 -39.21 116.98 -39.67 115.97 C-41.72 111.17 -42.01 107.2 -42.06 101.95 C-42.07 101.23 -42.07 100.51 -42.08 99.77 C-42.11 97.38 -42.12 95 -42.14 92.62 C-42.14 91.8 -42.15 90.98 -42.15 90.14 C-42.18 85.8 -42.2 81.46 -42.21 77.12 C-42.23 73.55 -42.26 69.98 -42.3 66.41 C-42.35 62.08 -42.37 57.75 -42.38 53.42 C-42.38 51.78 -42.4 50.14 -42.42 48.5 C-42.58 37.01 -41.08 28.61 -35.86 18.18 C-35.2 18.18 -34.54 18.18 -33.86 18.18 C-33.66 17.46 -33.45 16.73 -33.24 15.99 C-31.39 12.2 -29.26 10.65 -25.86 8.18 C-25.2 8.18 -24.54 8.18 -23.86 8.18 C-23.86 7.52 -23.86 6.86 -23.86 6.18 C-22.12 5.36 -20.37 4.55 -18.61 3.74 C-17.64 3.29 -16.67 2.83 -15.66 2.37 C-10.42 0.14 -5.65 0.02 0 0 Z " fill="#000000" transform="translate(720.8642578125,718.822998046875)"/>
</svg>
